<svg width="32" height="42" viewBox="0 0 32 42" fill="none" xmlns="http://www.w3.org/2000/svg">
<path fill-rule="evenodd" clip-rule="evenodd" d="M10.9706 0.736073C10.7594 0.947247 10.5866 1.21348 10.5866 1.32783C10.5866 1.60705 11.7953 6.10159 12.021 6.66128C12.3714 7.53053 13.6151 7.53084 14.011 6.66175C14.1628 6.32888 14.078 5.84083 13.4769 3.58284C12.7271 0.767202 12.5033 0.352051 11.7354 0.352051C11.5259 0.352051 11.1818 0.5249 10.9706 0.736073ZM19.0215 3.63431C18.8859 3.71377 18.3374 4.72646 17.8029 5.88479C16.7651 8.13386 16.7041 8.57388 17.3656 9.03721C17.8051 9.34521 18.3038 9.32895 18.6856 8.99451C19.0759 8.65272 20.7542 4.99129 20.7542 4.48182C20.7542 3.71753 19.7331 3.21806 19.0215 3.63431ZM27.324 4.66671C26.9779 4.81563 23.745 7.93035 18.5303 13.1394C10.5251 21.1362 10.2712 21.3725 9.84874 21.2269C9.44736 21.0885 9.32722 20.8216 8.30968 17.8115C7.08535 14.19 6.69788 13.535 5.45462 12.9851C3.97641 12.3312 1.84825 12.9833 1.16843 14.2984C0.880296 14.8557 0.879201 15.0489 1.1226 21.8068C1.28325 26.2694 1.45218 29.1284 1.59625 29.8234C1.86937 31.1411 2.54278 32.6154 3.45285 33.8884C4.48619 35.3339 9.07319 39.7366 10.2783 40.4399C13.7706 42.4775 18.1209 42.4162 21.5363 40.281C22.7211 39.5403 31.3315 30.9723 31.7166 30.1509C32.4454 28.5962 31.6568 26.4778 30.111 25.8374C29.7802 25.7003 29.6837 25.5786 29.7616 25.3967C30.3917 23.9224 30.4093 23.0805 29.8342 21.9529C29.4606 21.2208 28.9521 20.7972 28.0189 20.4409C27.3423 20.1825 27.324 20.1574 27.324 19.4878C27.324 18.2417 26.479 16.8913 25.4264 16.4553C25.1796 16.353 24.9777 16.2245 24.9777 16.1697C24.9777 16.115 26.428 14.6275 28.2006 12.8646C31.5994 9.48443 32.0099 8.92834 32.0099 7.70401C32.0099 5.38141 29.4783 3.74052 27.324 4.66671ZM4.95531 5.98334C4.53985 6.3988 4.55737 7.12351 4.99442 7.60514C5.18792 7.81851 6.28836 8.84309 7.43965 9.88206C9.19942 11.4701 9.61317 11.771 10.0355 11.771C10.6675 11.771 11.108 11.3074 11.108 10.6424C11.108 10.1039 11.1971 10.1976 7.77096 7.13744C6.0057 5.56083 5.56036 5.37829 4.95531 5.98334ZM19.573 14.4411C10.507 23.4966 10.8269 23.2315 9.4228 22.857C8.25274 22.5451 7.93723 22.0269 6.76749 18.4973C5.52986 14.7628 5.30695 14.4303 4.04164 14.4303C3.43518 14.4303 3.21556 14.5085 2.90991 14.8337C2.45424 15.3186 2.45878 14.939 2.81151 23.1118C3.09151 29.5986 3.14173 29.9296 4.14112 31.8716C4.60492 32.7728 5.20434 33.4681 7.52834 35.8004C10.1553 38.4366 10.4446 38.6783 11.6816 39.2697C13.3498 40.0675 14.5596 40.3057 16.4173 40.2022C18.0751 40.1099 19.5748 39.6185 20.8324 38.7557C21.2626 38.4605 23.568 36.2601 25.9553 33.8657C30.2864 29.5221 30.2961 29.5108 30.2961 28.842C30.2961 27.4454 28.7982 26.7431 27.6156 27.5851C27.3857 27.7489 27.0609 27.8828 26.894 27.8828C26.5277 27.8828 26.0726 27.4146 26.0726 27.0378C26.0726 26.8878 26.6358 26.1768 27.324 25.4582C28.345 24.3922 28.5754 24.061 28.5754 23.6606C28.5754 22.2271 27.2017 21.4899 25.9516 22.2521C25.3007 22.649 24.7232 22.6529 24.5139 22.2618C24.2473 21.7636 24.3218 21.5233 24.9777 20.7655C25.4713 20.1951 25.6034 19.9169 25.6034 19.4474C25.6034 18.7091 25.1361 18.0781 24.4594 17.9027C23.7261 17.7127 23.3391 17.8381 22.5698 18.5153C22.19 18.8496 21.7805 19.123 21.6596 19.123C21.2535 19.123 20.8715 18.7113 20.8715 18.2735C20.8715 17.9129 21.6712 17.038 25.5838 13.1177L30.2961 8.39603V7.72512C30.2961 7.19219 30.2021 6.96021 29.8389 6.59699C29.4608 6.21891 29.2518 6.13976 28.6328 6.13976H27.884L19.573 14.4411Z" fill="white"/>
</svg>
