<svg width="46" height="35" viewBox="0 0 46 35" fill="none" xmlns="http://www.w3.org/2000/svg">
<path fill-rule="evenodd" clip-rule="evenodd" d="M21.4705 0.834188C17.1076 1.62581 13.2782 3.69616 10.1809 6.93819C7.10956 10.1528 5.13165 14.1898 4.61962 18.2887L4.47201 19.4705H3.10021C1.44945 19.4705 0.813477 19.819 0.813477 20.7239C0.813477 21.2402 1.45171 21.9981 4.87903 25.5526C7.11512 27.8717 9.10704 29.8206 9.30551 29.8836C9.93571 30.0837 10.387 29.7957 11.8356 28.2688C12.6128 27.4496 14.4347 25.5672 15.8841 24.0857C18.1183 21.8021 18.5194 21.2948 18.5194 20.7519C18.5194 19.8264 17.8988 19.4705 16.2859 19.4705H14.9679L15.1015 18.8013C15.5234 16.6884 17.6108 13.8462 19.7479 12.4748C23.7455 9.90948 28.9769 10.5341 32.4269 13.9884C34.4147 15.9789 35.3916 18.362 35.3916 21.2205C35.3916 24.0937 34.433 26.4173 32.415 28.4354C29.5592 31.2912 25.4848 32.2714 21.8215 30.984C21.2022 30.7662 20.4981 30.5881 20.257 30.5881C19.6284 30.5881 19.0936 31.265 19.173 31.9597C19.2577 32.6992 20.4594 33.3362 22.6492 33.8021C26.7409 34.673 31.0522 33.3167 34.1889 30.172C36.6858 27.6687 37.8723 24.8077 37.8723 21.2902C37.8723 18.9133 37.5939 17.6677 36.5919 15.5587C35.4872 13.2335 33.1667 10.8806 30.8723 9.75898C27.1042 7.91675 23.182 7.93322 19.3802 9.80716C15.5098 11.7151 12.8452 15.4805 12.4374 19.6179C12.3083 20.9281 12.3369 21.1115 12.7304 21.505C12.9702 21.7448 13.4059 21.941 13.6982 21.941C13.9908 21.941 14.1993 22.0234 14.1614 22.1241C14.1238 22.2247 13.1028 23.3359 11.8926 24.5934L9.69215 26.8797L7.46615 24.6002C6.24177 23.3464 5.20907 22.2352 5.17139 22.1309C5.13371 22.0265 5.27248 21.9382 5.48021 21.9345C6.3163 21.92 6.98995 20.9606 6.98995 19.7842C6.98995 17.6719 8.1886 14.0158 9.70121 11.5141C11.4675 8.59307 15.1853 5.53325 18.5397 4.23969C28.6972 0.322571 40.0538 6.19763 42.7317 16.7545C43.0031 17.8244 43.2252 18.9195 43.2252 19.188C43.2252 19.7836 43.8997 20.4999 44.4605 20.4999C44.687 20.4999 45.0695 20.3026 45.3106 20.0615C45.6905 19.6817 45.7325 19.4688 45.6248 18.466C44.834 11.0886 39.1156 4.11595 31.8214 1.63445C28.6449 0.553775 24.6977 0.248659 21.4705 0.834188ZM24.4016 13.2057C24.2237 13.3837 24.0782 13.8369 24.0782 14.2128C24.0782 14.7689 23.9829 14.9202 23.5672 15.0246C22.79 15.2196 21.6617 16.3147 21.3902 17.1376C21.0762 18.0892 21.2496 19.5779 21.7548 20.266C21.9739 20.5645 22.8874 21.2365 23.7848 21.7597C25.7961 22.9317 26.3429 23.4279 26.3429 24.0808C26.3429 25.2317 24.9209 25.5761 23.0043 24.8893C22.0782 24.5572 22.0138 24.5586 21.6146 24.9202C21.3819 25.1306 21.1958 25.5572 21.1958 25.88C21.1958 26.5516 21.7488 26.9909 23.0949 27.3883C23.8877 27.6224 23.9878 27.7247 24.1008 28.4189C24.2274 29.1978 24.5427 29.5523 25.1076 29.5523C25.6832 29.5523 25.962 29.2089 26.0761 28.3586C26.1605 27.7296 26.3025 27.4768 26.6266 27.3786C27.3991 27.1445 28.4371 26.23 28.7324 25.5234C28.8903 25.1456 29.0194 24.3377 29.0194 23.7281C29.0194 22.1177 28.5005 21.476 26.1732 20.2077C25.1175 19.6325 24.1653 19.0031 24.0572 18.8092C23.4282 17.6813 24.8375 16.7094 26.2474 17.2986C27.2858 17.7324 27.9095 17.6992 28.2654 17.1909C28.8567 16.3466 28.2697 15.5031 26.7032 14.9466C26.283 14.7971 26.137 14.6077 26.137 14.212C26.137 13.0125 25.1609 12.4466 24.4016 13.2057ZM43.8429 21.3234C43.329 21.8373 43.3136 22.5943 43.8077 23.0415C44.5956 23.7547 45.9017 23.2185 45.9017 22.1821C45.9017 21.6219 45.2112 20.9116 44.6664 20.9116C44.4399 20.9116 44.0694 21.0969 43.8429 21.3234ZM44.3045 24.2267C43.5835 24.4948 43.2973 25.3091 43.7054 25.9317C44.4414 27.0552 45.9017 26.6743 45.9017 25.3585C45.9017 24.3991 45.1926 23.8965 44.3045 24.2267Z" fill="white"/>
</svg>
